#N canvas 827 239 527 327 12;
#X obj 1084 287 *~ 1;
#X obj 1411 714 outlet~;
#X obj 1118 194 inlet~;
#X obj 1411 640 *~ 1;
#X obj 1251 442 *~;
#X obj 1251 368 tgl 15 0 empty empty empty 17 7 0 10 #fcfcfc #000000 #000000 0 1;
#X obj 1145 368 tgl 15 0 empty empty empty 17 7 0 10 #fcfcfc #000000 #000000 0 1;
#X obj 1145 330 == 0;
#X obj 1251 330 == 1;
#X obj 1145 442 line~;
#X obj 1145 404 pack 1 50;
#X obj 1083 468 *~;
#X obj 1251 431 line~;
#X obj 1251 404 pack 1 50;
#X obj 1251 480 s~ \$0-bypassedSignal;
#X obj 1197 343 tgl 15 0 empty \$0-eq5By eq5By 0 -7 0 10 #fcfcfc #000000 #000000 0 1;
#X obj 1196 249 loadbang;
#X msg 1197 305 0;
#X obj 507 461 vsl 16 90 0 1 0 0 eq5_4_2 empty empty 0 -9 0 10 #fcfcfc #000000 #000000 0 1;
#X obj 533 461 vsl 16 90 0 1 0 0 eq5_5_2 empty empty 0 -9 0 10 #fcfcfc #000000 #000000 0 1;
#X obj 455 461 vsl 16 90 0 1 0 0 eq5_2_2 empty empty 0 -9 0 10 #fcfcfc #000000 #000000 0 1;
#X obj 481 461 vsl 16 90 0 1 0 0 eq5_3_2 empty empty 0 -9 0 10 #fcfcfc #000000 #000000 0 1;
#N canvas 3 56 450 250 (subpatch) 0;
#X array \$0-array1 8 float 5;
#A 0 0.669291 0.807142 0.471429 0.592857 0.357144 0.357144 1 1.01432;
#X coords 0 1 7 0 205 108 1 0 0;
#X restore 402 568 graph;
#X obj 398 288 f;
#X obj 471 254 + 1;
#X floatatom 398 326 5 0 0 0 - - - 0;
#X floatatom 437 342 5 0 0 0 - - - 0;
#X obj 1145 556 mtof;
#X floatatom 1127 545 5 0 0 0 - - - 0;
#X floatatom 1145 594 10 0 0 0 - - - 0;
#X obj 1084 604 lop~;
#X msg 1145 518 100;
#X obj 1145 480 loadbang;
#X text 1168 223 (deja la voz audible);
#X floatatom 1234 565 5 0 1 2 eq5_pre eq5_pre2 - 0;
#X obj 1206 604 loadbang;
#X msg 1286 627 set \$1;
#X msg 1254 658 0.960526;
#X obj 1084 642 *~;
#X obj 1225 698 s eq5_init_pre;
#X obj 1084 698 s~ \$0-a_eq5;
#X obj 1412 569 catch~ \$0-de_eq5;
#X obj 686 308 sel 0 1;
#X obj 739 370 del 50;
#X obj 398 214 tgl 15 0 empty empty empty 17 7 0 10 #fcfcfc #000000 #000000 0 1;
#X msg 686 408 1;
#X msg 780 402 0;
#X msg 739 408 1;
#X msg 716 402 0;
#X obj 786 606 spigot;
#X obj 818 577 tgl 15 0 empty empty empty 17 7 0 10 #fcfcfc #000000 #000000 0 1;
#X obj 686 606 spigot;
#X obj 712 577 tgl 15 0 empty empty empty 17 7 0 10 #fcfcfc #000000 #000000 0 1;
#X obj 398 361 pack f f;
#X obj 544 430 hradio 15 1 0 2 empty empty bar|graph -60 7 0 10 #fcfcfc #000000 #000000 0;
#X obj 543 827 *~;
#X floatatom 621 827 5 0 1 2 eq5_1 eq5_1_2 - 0;
#X obj 693 836 *~;
#X floatatom 786 836 5 0 1 2 eq5_2 eq5_2_2 - 0;
#X obj 1182 842 *~;
#X floatatom 1297 842 5 0 1 2 eq5_5 eq5_5_2 - 0;
#X obj 858 850 *~;
#X floatatom 954 838 5 0 1 2 eq5_3 eq5_3_2 - 0;
#X obj 1022 840 *~;
#X floatatom 1115 840 5 0 1 2 eq5_4 eq5_4_2 - 0;
#X obj 547 1050 lop~ 150;
#X obj 692 1053 lop~ 625;
#X obj 693 1009 hip~ 150;
#X obj 859 1055 lop~ 2500;
#X obj 859 1017 hip~ 625;
#X obj 1024 1027 hip~ 2500;
#X obj 1024 1057 lop~ 10000;
#X obj 580 881 loadbang;
#X msg 621 862 set \$1;
#X msg 589 919 0.620155;
#X obj 716 882 loadbang;
#X msg 786 871 set \$1;
#X msg 754 928 0.604651;
#X obj 884 884 loadbang;
#X msg 954 873 set \$1;
#X msg 922 930 0;
#X obj 1045 886 loadbang;
#X msg 1115 875 set \$1;
#X msg 1083 932 0;
#X obj 1231 888 loadbang;
#X msg 1297 877 set \$1;
#X msg 1265 934 0;
#X obj 589 957 s eq5_init_1;
#X obj 733 975 s eq5_init_2;
#X obj 922 968 s eq5_init_3;
#X obj 1054 979 s eq5_init_4;
#X obj 1220 981 s eq5_init_5;
#X obj 542 781 r~ \$0-a_eq5;
#X obj 692 783 r~ \$0-a_eq5;
#X obj 857 785 r~ \$0-a_eq5;
#X obj 1021 787 r~ \$0-a_eq5;
#X obj 1181 789 r~ \$0-a_eq5;
#X obj 548 1083 throw~ \$0-de_eq5;
#X obj 692 1091 throw~ \$0-de_eq5;
#X obj 859 1093 throw~ \$0-de_eq5;
#X obj 1024 1095 throw~ \$0-de_eq5;
#X obj 1182 1098 throw~ \$0-de_eq5;
#X obj 544 214 loadbang;
#X msg 544 252 0;
#X obj 1481 640 r~ \$0-bypassedSignal;
#X obj 581 430 tgl 15 1 \$0-eq5By empty by 0 -7 0 10 #fcfcfc #000000 #000000 1 1;
#X obj 686 370 del 50;
#X obj 686 644 tabwrite \$0-array1;
#X obj 437 304 tabread \$0-array1;
#X msg 692 464 0;
#X msg 731 464 1;
#X msg 772 464 2;
#X msg 806 464 3;
#X msg 838 464 4;
#X obj 398 250 metro 50;
#X text 1088 223 LO;
#X obj 400 828 *~;
#X floatatom 478 809 5 0 1 2 eq5_0 eq5_0_2 - 0;
#X obj 411 878 loadbang;
#X msg 478 874 set \$1;
#X msg 446 920 1.51181;
#X obj 400 775 r~ \$0-a_eq5;
#X obj 400 1084 throw~ \$0-de_eq5;
#X obj 1379 856 *~;
#X floatatom 1494 856 5 0 1 2 eq5_6 eq5_6_2 - 0;
#X obj 1428 902 loadbang;
#X msg 1494 891 set \$1;
#X msg 1462 948 0;
#X obj 1381 789 r~ \$0-a_eq5;
#X obj 1379 1100 throw~ \$0-de_eq5;
#X obj 1584 833 *~;
#X floatatom 1699 835 5 0 1 2 eq5_7 eq5_7_2 - 0;
#X obj 1633 881 loadbang;
#X msg 1699 870 set \$1;
#X msg 1667 927 0;
#X obj 1580 793 r~ \$0-a_eq5;
#X obj 1584 1079 throw~ \$0-de_eq5;
#X text 1584 759 LO;
#X obj 558 461 vsl 16 90 0 1 0 0 eq5_6_2 empty hi 0 -9 0 10 #fcfcfc #000000 #000000 0 1;
#X obj 431 461 vsl 16 90 0 1 0 0 eq5_1_2 empty empty 0 -9 0 10 #fcfcfc #000000 #000000 0 1;
#X obj 585 461 vsl 16 90 0 1 0 0 eq5_7_2 empty hi 0 -9 0 10 #fcfcfc #000000 #000000 0 1;
#X msg 874 464 5;
#X msg 910 464 6;
#X msg 946 464 7;
#X obj 405 461 vsl 16 90 0 1 0 0 eq5_0_2 empty empty 0 -9 0 10 #fcfcfc #000000 #000000 0 1;
#X obj 471 274 mod 8;
#X obj 398 375 route 0 1 2 3 4 5 6 7;
#X obj 1417 995 s eq5_init_6;
#X obj 1622 974 s eq5_init_7;
#X obj 446 958 s eq5_init_0;
#X obj 403 435 hsl 70 15 0 1 0 0 eq5_pre2 empty preamp -2 -8 0 10 #e0c4fc #000000 #000000 0 1;
#X obj 1183 1026 hip~ 3750;
#X obj 1183 1069 lop~ 15000;
#X obj 1382 1063 lop~ 17500;
#X obj 1383 1025 hip~ 4375;
#X obj 1585 1041 lop~ 20000;
#X obj 400 1053 lop~ 20;
#X obj 546 1008 hip~ 34;
#X text 400 410 EQ8;
#X obj 1059 160 catch~ eq2;
#X obj 1496 703 throw~ out2;
#X connect 0 0 4 0;
#X connect 0 0 11 0;
#X connect 3 0 160 0;
#X connect 4 0 14 0;
#X connect 5 0 13 0;
#X connect 6 0 10 0;
#X connect 7 0 6 0;
#X connect 8 0 5 0;
#X connect 9 0 11 1;
#X connect 10 0 9 0;
#X connect 11 0 30 0;
#X connect 12 0 4 1;
#X connect 13 0 12 0;
#X connect 15 0 7 0;
#X connect 15 0 8 0;
#X connect 16 0 17 0;
#X connect 17 0 15 0;
#X connect 18 0 113 0;
#X connect 18 0 51 0;
#X connect 19 0 141 0;
#X connect 19 0 51 0;
#X connect 20 0 111 0;
#X connect 20 0 51 0;
#X connect 21 0 112 0;
#X connect 21 0 51 0;
#X connect 23 0 24 0;
#X connect 23 0 108 0;
#X connect 23 0 25 0;
#X connect 24 0 145 0;
#X connect 25 0 53 0;
#X connect 26 0 53 1;
#X connect 27 0 29 0;
#X connect 28 0 27 0;
#X connect 29 0 30 1;
#X connect 30 0 38 0;
#X connect 31 0 28 0;
#X connect 32 0 31 0;
#X connect 34 0 36 0;
#X connect 34 0 38 1;
#X connect 35 0 37 0;
#X connect 36 0 37 0;
#X connect 37 0 39 0;
#X connect 38 0 40 0;
#X connect 41 0 3 0;
#X connect 42 0 106 0;
#X connect 42 1 43 0;
#X connect 43 0 46 0;
#X connect 43 0 47 0;
#X connect 44 0 114 0;
#X connect 45 0 52 0;
#X connect 45 0 50 0;
#X connect 46 0 52 0;
#X connect 46 0 50 0;
#X connect 47 0 44 0;
#X connect 48 0 44 0;
#X connect 49 0 107 1;
#X connect 50 0 49 1;
#X connect 51 0 107 0;
#X connect 52 0 51 1;
#X connect 53 0 146 0;
#X connect 54 0 42 0;
#X connect 55 0 157 0;
#X connect 56 0 55 1;
#X connect 56 0 73 0;
#X connect 57 0 67 0;
#X connect 58 0 57 1;
#X connect 58 0 76 0;
#X connect 59 0 151 0;
#X connect 60 0 59 1;
#X connect 60 0 85 0;
#X connect 61 0 69 0;
#X connect 62 0 61 1;
#X connect 62 0 79 0;
#X connect 63 0 70 0;
#X connect 64 0 63 1;
#X connect 64 0 82 0;
#X connect 65 0 97 0;
#X connect 66 0 98 0;
#X connect 67 0 66 0;
#X connect 68 0 99 0;
#X connect 69 0 68 0;
#X connect 70 0 71 0;
#X connect 71 0 100 0;
#X connect 72 0 74 0;
#X connect 73 0 74 0;
#X connect 74 0 87 0;
#X connect 75 0 77 0;
#X connect 76 0 77 0;
#X connect 77 0 88 0;
#X connect 78 0 80 0;
#X connect 79 0 80 0;
#X connect 80 0 89 0;
#X connect 81 0 83 0;
#X connect 82 0 83 0;
#X connect 83 0 90 0;
#X connect 84 0 86 0;
#X connect 85 0 86 0;
#X connect 86 0 91 0;
#X connect 92 0 55 0;
#X connect 93 0 57 0;
#X connect 94 0 61 0;
#X connect 95 0 63 0;
#X connect 96 0 59 0;
#X connect 102 0 103 0;
#X connect 103 0 54 0;
#X connect 104 0 3 0;
#X connect 106 0 45 0;
#X connect 106 0 48 0;
#X connect 108 0 26 0;
#X connect 109 0 49 0;
#X connect 110 0 49 0;
#X connect 111 0 49 0;
#X connect 112 0 49 0;
#X connect 113 0 49 0;
#X connect 114 0 23 0;
#X connect 116 0 156 0;
#X connect 117 0 116 1;
#X connect 117 0 119 0;
#X connect 118 0 120 0;
#X connect 119 0 120 0;
#X connect 120 0 149 0;
#X connect 121 0 116 0;
#X connect 123 0 154 0;
#X connect 124 0 123 1;
#X connect 124 0 126 0;
#X connect 125 0 127 0;
#X connect 126 0 127 0;
#X connect 127 0 147 0;
#X connect 128 0 123 0;
#X connect 130 0 155 0;
#X connect 131 0 130 1;
#X connect 131 0 133 0;
#X connect 132 0 134 0;
#X connect 133 0 134 0;
#X connect 134 0 148 0;
#X connect 135 0 130 0;
#X connect 138 0 142 0;
#X connect 138 0 51 0;
#X connect 139 0 110 0;
#X connect 139 0 51 0;
#X connect 140 0 143 0;
#X connect 141 0 49 0;
#X connect 142 0 49 0;
#X connect 143 0 49 0;
#X connect 144 0 109 0;
#X connect 144 0 51 0;
#X connect 145 0 23 1;
#X connect 146 0 144 0;
#X connect 146 1 139 0;
#X connect 146 2 20 0;
#X connect 146 3 21 0;
#X connect 146 4 18 0;
#X connect 146 5 19 0;
#X connect 146 6 138 0;
#X connect 146 7 140 0;
#X connect 151 0 152 0;
#X connect 152 0 101 0;
#X connect 153 0 129 0;
#X connect 154 0 153 0;
#X connect 155 0 136 0;
#X connect 156 0 122 0;
#X connect 157 0 65 0;
#X connect 159 0 0 0;
#X coords 0 0 1 1 216 283 1 398 408;
