#N canvas 0 50 450 300 eq 1;
#X obj 992 326 *~ 1;
#X obj 1319 717 outlet~;
#X obj 992 288 inlet~;
#X obj 1319 679 *~ 1;
#X obj 1159 481 *~;
#X obj 1159 407 tgl 15 0 empty empty empty 17 7 0 10 #fcfcfc #000000 #000000 0 1;
#X obj 1053 407 tgl 15 0 empty empty empty 17 7 0 10 #fcfcfc #000000 #000000 0 1;
#X obj 1053 369 == 0;
#X obj 1159 369 == 1;
#X obj 1053 481 line~;
#X obj 1053 443 pack 1 50;
#X obj 991 507 *~;
#X obj 1159 470 line~;
#X obj 1159 443 pack 1 50;
#X obj 1159 519 s~ \$0-bypassedSignal;
#X obj 1105 382 tgl 15 0 empty \$0-eq5By eq5By 0 -7 0 10 #fcfcfc #000000 #000000 0 1;
#X obj 1104 288 loadbang;
#X msg 1105 344 0;
#X obj 411 500 vsl 20 128 0 1 0 0 eq5_4 empty empty 0 -9 0 10 #fcfcfc #000000 #000000 0 1;
#X obj 437 500 vsl 20 128 0 1 0 0 eq5_5 empty empty 0 -9 0 10 #fcfcfc #000000 #000000 0 1;
#X obj 359 500 vsl 20 128 0 1 0 0 eq5_2 empty empty 0 -9 0 10 #fcfcfc #000000 #000000 0 1;
#X obj 385 500 vsl 20 128 0 1 0 0 eq5_3 empty empty 0 -9 0 10 #fcfcfc #000000 #000000 0 1;
#N canvas 3 56 450 250 (subpatch) 0;
#X array \$0-array1 8 float 5;
#A 0 0.669291 0.807142 0.471429 0.592857 0.357144 0.357144 1 1.01432;
#X coords 0 1 7 0 210 140 1 0 0;
#X restore 305 647 graph;
#X obj 306 327 f;
#X obj 379 293 + 1;
#X floatatom 306 365 5 0 0 0 - - - 0;
#X floatatom 345 381 5 0 0 0 - - - 0;
#X obj 1053 595 mtof;
#X floatatom 1035 584 5 0 0 0 - - - 0;
#X floatatom 1053 633 10 0 0 0 - - - 0;
#X obj 992 643 lop~;
#X msg 1053 557 100;
#X obj 1053 519 loadbang;
#X text 1076 262 (deja la voz audible);
#X floatatom 1142 604 5 0 1 2 eq5_pre eq5_pre - 0;
#X obj 1114 643 loadbang;
#X msg 1194 666 set \$1;
#X msg 1162 697 0.652174;
#X obj 992 681 *~;
#X obj 1133 737 s eq5_init_pre;
#X obj 992 737 s~ \$0-a_eq5;
#X obj 1320 608 catch~ \$0-de_eq5;
#X obj 594 347 sel 0 1;
#X obj 647 409 del 50;
#X obj 306 253 tgl 15 0 empty empty empty 17 7 0 10 #fcfcfc #000000 #000000 0 1;
#X msg 594 447 1;
#X msg 688 441 0;
#X msg 647 447 1;
#X msg 624 441 0;
#X obj 694 645 spigot;
#X obj 726 616 tgl 15 0 empty empty empty 17 7 0 10 #fcfcfc #000000 #000000 0 1;
#X obj 594 645 spigot;
#X obj 620 616 tgl 15 0 empty empty empty 17 7 0 10 #fcfcfc #000000 #000000 0 1;
#X obj 306 400 pack f f;
#X obj 452 469 hradio 15 1 0 2 empty empty bar|graph -60 7 0 10 #fcfcfc #000000 #000000 0;
#X obj 451 866 *~;
#X floatatom 529 866 5 0 1 2 eq5_1 eq5_1 - 0;
#X obj 601 875 *~;
#X floatatom 694 875 5 0 1 2 eq5_2 eq5_2 - 0;
#X obj 1090 881 *~;
#X floatatom 1205 881 5 0 1 2 eq5_5 eq5_5 - 0;
#X obj 766 889 *~;
#X floatatom 862 877 5 0 1 2 eq5_3 eq5_3 - 0;
#X obj 930 879 *~;
#X floatatom 1023 879 5 0 1 2 eq5_4 eq5_4 - 0;
#X obj 455 1089 lop~ 150;
#X obj 600 1092 lop~ 625;
#X obj 601 1048 hip~ 150;
#X obj 767 1094 lop~ 2500;
#X obj 767 1056 hip~ 625;
#X obj 932 1066 hip~ 2500;
#X obj 932 1096 lop~ 10000;
#X obj 488 920 loadbang;
#X msg 529 901 set \$1;
#X msg 497 958 -2.71654;
#X obj 624 921 loadbang;
#X msg 694 910 set \$1;
#X msg 662 967 -2.48031;
#X obj 792 923 loadbang;
#X msg 862 912 set \$1;
#X msg 830 969 -1.69291;
#X obj 953 925 loadbang;
#X msg 1023 914 set \$1;
#X msg 991 971 -1.53543;
#X obj 1139 927 loadbang;
#X msg 1205 916 set \$1;
#X msg 1173 973 -1.06299;
#X obj 497 996 s eq5_init_1;
#X obj 641 1014 s eq5_init_2;
#X obj 830 1007 s eq5_init_3;
#X obj 962 1018 s eq5_init_4;
#X obj 1128 1020 s eq5_init_5;
#X obj 450 820 r~ \$0-a_eq5;
#X obj 600 822 r~ \$0-a_eq5;
#X obj 765 824 r~ \$0-a_eq5;
#X obj 929 826 r~ \$0-a_eq5;
#X obj 1089 828 r~ \$0-a_eq5;
#X obj 456 1122 throw~ \$0-de_eq5;
#X obj 600 1130 throw~ \$0-de_eq5;
#X obj 767 1132 throw~ \$0-de_eq5;
#X obj 932 1134 throw~ \$0-de_eq5;
#X obj 1090 1137 throw~ \$0-de_eq5;
#X obj 452 253 loadbang;
#X msg 452 291 0;
#X obj 1389 679 r~ \$0-bypassedSignal;
#X obj 489 469 tgl 15 0 \$0-eq5By empty by 0 -7 0 10 #fcfcfc #000000 #000000 0 1;
#X obj 594 409 del 50;
#X obj 594 683 tabwrite \$0-array1;
#X obj 345 343 tabread \$0-array1;
#X msg 600 503 0;
#X msg 639 503 1;
#X msg 680 503 2;
#X msg 714 503 3;
#X msg 746 503 4;
#X obj 306 289 metro 50;
#X text 996 262 LO;
#X obj 308 867 *~;
#X floatatom 386 848 5 0 1 2 eq5_0 eq5_0 - 0;
#X obj 319 917 loadbang;
#X msg 386 913 set \$1;
#X msg 354 959 1.51181;
#X obj 308 814 r~ \$0-a_eq5;
#X obj 308 1123 throw~ \$0-de_eq5;
#X obj 1287 895 *~;
#X floatatom 1402 895 5 0 1 2 eq5_6 eq5_6 - 0;
#X obj 1336 941 loadbang;
#X msg 1402 930 set \$1;
#X msg 1370 987 -0.826772;
#X obj 1289 828 r~ \$0-a_eq5;
#X obj 1287 1139 throw~ \$0-de_eq5;
#X obj 1492 872 *~;
#X floatatom 1607 874 5 0 1 2 eq5_7 eq5_7 - 0;
#X obj 1541 920 loadbang;
#X msg 1607 909 set \$1;
#X msg 1575 966 -1.46457;
#X obj 1488 832 r~ \$0-a_eq5;
#X obj 1492 1118 throw~ \$0-de_eq5;
#X text 1492 798 LO;
#X obj 462 500 vsl 20 128 0 1 0 0 eq5_6 empty hi 0 -9 0 10 #fcfcfc #000000 #000000 0 1;
#X obj 335 500 vsl 20 128 0 1 0 0 eq5_1 empty empty 0 -9 0 10 #fcfcfc #000000 #000000 0 1;
#X obj 489 500 vsl 20 128 0 1 0 0 eq5_7 empty hi 0 -9 0 10 #fcfcfc #000000 #000000 0 1;
#X msg 782 503 5;
#X msg 818 503 6;
#X msg 854 503 7;
#X obj 309 500 vsl 20 128 0 1 0 0 eq5_0 empty empty 0 -9 0 10 #fcfcfc #000000 #000000 0 1;
#X obj 379 313 mod 8;
#X obj 306 414 route 0 1 2 3 4 5 6 7;
#X obj 1325 1034 s eq5_init_6;
#X obj 1530 1013 s eq5_init_7;
#X obj 354 997 s eq5_init_0;
#X obj 311 474 hsl 70 15 0 1 0 0 eq5_pre empty preamp -2 -8 0 10 #e0c4fc #000000 #000000 0 1;
#X obj 1091 1065 hip~ 3750;
#X obj 1091 1108 lop~ 15000;
#X obj 1290 1102 lop~ 17500;
#X obj 1291 1064 hip~ 4375;
#X obj 1493 1080 lop~ 20000;
#X obj 308 1092 lop~ 20;
#X obj 454 1047 hip~ 34;
#X text 308 449 EQ8;
#X connect 0 0 4 0;
#X connect 0 0 11 0;
#X connect 2 0 0 0;
#X connect 3 0 1 0;
#X connect 4 0 14 0;
#X connect 5 0 13 0;
#X connect 6 0 10 0;
#X connect 7 0 6 0;
#X connect 8 0 5 0;
#X connect 9 0 11 1;
#X connect 10 0 9 0;
#X connect 11 0 30 0;
#X connect 12 0 4 1;
#X connect 13 0 12 0;
#X connect 15 0 7 0;
#X connect 15 0 8 0;
#X connect 16 0 17 0;
#X connect 17 0 15 0;
#X connect 18 0 113 0;
#X connect 18 0 51 0;
#X connect 19 0 141 0;
#X connect 19 0 51 0;
#X connect 20 0 111 0;
#X connect 20 0 51 0;
#X connect 21 0 112 0;
#X connect 21 0 51 0;
#X connect 23 0 24 0;
#X connect 23 0 108 0;
#X connect 23 0 25 0;
#X connect 24 0 145 0;
#X connect 25 0 53 0;
#X connect 26 0 53 1;
#X connect 27 0 29 0;
#X connect 28 0 27 0;
#X connect 29 0 30 1;
#X connect 30 0 38 0;
#X connect 31 0 28 0;
#X connect 32 0 31 0;
#X connect 34 0 36 0;
#X connect 34 0 38 1;
#X connect 35 0 37 0;
#X connect 36 0 37 0;
#X connect 37 0 39 0;
#X connect 38 0 40 0;
#X connect 41 0 3 0;
#X connect 42 0 106 0;
#X connect 42 1 43 0;
#X connect 43 0 46 0;
#X connect 43 0 47 0;
#X connect 44 0 114 0;
#X connect 45 0 52 0;
#X connect 45 0 50 0;
#X connect 46 0 52 0;
#X connect 46 0 50 0;
#X connect 47 0 44 0;
#X connect 48 0 44 0;
#X connect 49 0 107 1;
#X connect 50 0 49 1;
#X connect 51 0 107 0;
#X connect 52 0 51 1;
#X connect 53 0 146 0;
#X connect 54 0 42 0;
#X connect 55 0 157 0;
#X connect 56 0 55 1;
#X connect 56 0 73 0;
#X connect 57 0 67 0;
#X connect 58 0 57 1;
#X connect 58 0 76 0;
#X connect 59 0 151 0;
#X connect 60 0 59 1;
#X connect 60 0 85 0;
#X connect 61 0 69 0;
#X connect 62 0 61 1;
#X connect 62 0 79 0;
#X connect 63 0 70 0;
#X connect 64 0 63 1;
#X connect 64 0 82 0;
#X connect 65 0 97 0;
#X connect 66 0 98 0;
#X connect 67 0 66 0;
#X connect 68 0 99 0;
#X connect 69 0 68 0;
#X connect 70 0 71 0;
#X connect 71 0 100 0;
#X connect 72 0 74 0;
#X connect 73 0 74 0;
#X connect 74 0 87 0;
#X connect 75 0 77 0;
#X connect 76 0 77 0;
#X connect 77 0 88 0;
#X connect 78 0 80 0;
#X connect 79 0 80 0;
#X connect 80 0 89 0;
#X connect 81 0 83 0;
#X connect 82 0 83 0;
#X connect 83 0 90 0;
#X connect 84 0 86 0;
#X connect 85 0 86 0;
#X connect 86 0 91 0;
#X connect 92 0 55 0;
#X connect 93 0 57 0;
#X connect 94 0 61 0;
#X connect 95 0 63 0;
#X connect 96 0 59 0;
#X connect 102 0 103 0;
#X connect 103 0 54 0;
#X connect 104 0 3 0;
#X connect 106 0 45 0;
#X connect 106 0 48 0;
#X connect 108 0 26 0;
#X connect 109 0 49 0;
#X connect 110 0 49 0;
#X connect 111 0 49 0;
#X connect 112 0 49 0;
#X connect 113 0 49 0;
#X connect 114 0 23 0;
#X connect 116 0 156 0;
#X connect 117 0 116 1;
#X connect 117 0 119 0;
#X connect 118 0 120 0;
#X connect 119 0 120 0;
#X connect 120 0 149 0;
#X connect 121 0 116 0;
#X connect 123 0 154 0;
#X connect 124 0 123 1;
#X connect 124 0 126 0;
#X connect 125 0 127 0;
#X connect 126 0 127 0;
#X connect 127 0 147 0;
#X connect 128 0 123 0;
#X connect 130 0 155 0;
#X connect 131 0 130 1;
#X connect 131 0 133 0;
#X connect 132 0 134 0;
#X connect 133 0 134 0;
#X connect 134 0 148 0;
#X connect 135 0 130 0;
#X connect 138 0 142 0;
#X connect 138 0 51 0;
#X connect 139 0 110 0;
#X connect 139 0 51 0;
#X connect 140 0 143 0;
#X connect 141 0 49 0;
#X connect 142 0 49 0;
#X connect 143 0 49 0;
#X connect 144 0 109 0;
#X connect 144 0 51 0;
#X connect 145 0 23 1;
#X connect 146 0 144 0;
#X connect 146 1 139 0;
#X connect 146 2 20 0;
#X connect 146 3 21 0;
#X connect 146 4 18 0;
#X connect 146 5 19 0;
#X connect 146 6 138 0;
#X connect 146 7 140 0;
#X connect 151 0 152 0;
#X connect 152 0 101 0;
#X connect 153 0 129 0;
#X connect 154 0 153 0;
#X connect 155 0 136 0;
#X connect 156 0 122 0;
#X connect 157 0 65 0;
