#N canvas 827 239 527 327 12;
#X obj 10 154 cnv 15 225 162 empty empty empty 20 12 0 14 #dcbea0 #373737 0;
#X obj 23 39 cnv 1 525 1 empty empty empty 8 12 0 13 #000000 #000000 0;
#X obj 23 9 note 134 20 Unispace empty 0 55 55 55 0 228 228 228 0 0 ENTORNO S&SP;
#X text 16 59 El entorno S&SP incluye múltiples técnicas de síntesis sonora \, un sistema de mezcla \, dos tipos de arpegiadores y la posibilidad de usar efectos por inserto. En primer lugar se tiene la etapa de Master \, donde se tienen faders de Volumen para el master \, delay y reverbs \, un cronómetro resetable \, y los BPM de la sesión.;
#X obj 110 174 vsl 17 128 0.01 1 1 1 empty empty REV2 -2 -9 0 10 #191919 #e1e1e1 #000000 9923 1;
#X obj 133 275 hsl 65 17 100 10000 1 0 empty empty empty -2 -8 0 10 #191919 #e1e1e1 #e1e1e1 0 1;
#X obj 198 278 knob 24 1 10 0 0 empty empty #191919 #696969 #e1e1e1 1 0 0 0 1 270 0 0 0;
#X obj 20 174 vsl 17 128 0.01 2 1 1 empty empty DELAY -4 -9 0 10 #191919 #e1e1e1 #000000 11174 1;
#X obj 43 190 nbx 4 18 0.0075 0.9 1 0 empty empty Feedback 0 -8 0 10 #e4e4e4 #373737 #373737 0 256;
#X obj 133 176 knob 20 0 100 0 0 empty empty #191919 #696969 #e1e1e1 1 0 0 0 1 270 0 0 0;
#X obj 134 238 hsl 83 13 20 5000 1 0 empty empty crossover -2 -6 0 10 #000000 #ffffff #343434 0 1;
#X obj 200 217 knob 20 0 100 0 0 empty empty #191919 #696969 #e1e1e1 1 0 0 0 1 270 0 0 0;
#X obj 43 207 vradio 11 1 0 8 empty empty empty 0 -8 0 10 #e4e4e4 #4d4d4d #373737 0;
#X text 156 175 FB, f 10;
#X text 126 212 DAMPING, f 11;
#X text 194 256 [Q];
#X text 147 255 HPF;
#X text 233 172 El efecto de delay funciona por envío y cuenta con el parámetro de feedback y la subdivisión del delay.;
#X text 233 216 REV2 Y REV3 tienen los parámetros de feedback (FB) \, damping que es atenuación de altas frecuencias según el crosover \, y una etapa de filtros pasa altos para eliminar contenido excesivo en bajas frecuencias.;
#X text 12 343 Cada canal cuenta con la misma lógica:;
#X obj 10 378 cnv 15 255 290 empty empty empty 20 12 0 14 #dcbea0 #373737 0;
#X obj 172 386 vsl 25 256 0.04 4 1 0 empty empty empty 3 -10 0 20 #191919 #e1e1e1 #e1e1e1 0 1;
#X obj 200 387 vu 41 240 empty empty -1 -8 0 10 #191919 #e1e1e1 1 0;
#X obj 108 591 knob 52 -1 1 0 0 pan1 empty #191919 #696969 #e1e1e1 1 0 0 0 1 270 0 0 0;
#X obj 34 413 hsl 119 11 0 2 0 0 empty empty REV2 50 5 0 9 #191919 #e1e1e1 #ffffff 0 1;
#X obj 49 503 nbx 11 11 0 500 0 0 empty empty RATE -28 5 0 10 #191919 #e1e1e1 #000000 0 256;
#X obj 51 518 hsl 100 11 0.01 1 1 0 empty empty LEVEL -30 5 0 10 #191919 #e1e1e1 #000000 0 1;
#X obj 34 398 hsl 119 11 0 2 0 0 empty empty REV3 50 5 0 9 #191919 #e1e1e1 #ffffff 0 1;
#X obj 34 427 hsl 119 11 0 2 0 0 empty empty DELAY 50 5 0 9 #191919 #e1e1e1 #ffffff 0 1;
#X obj 19 545 tgl 25 0 empty empty MIDI\  25 12 0 10 #e4e4e4 #4d4d4d #373737 0 1;
#X obj 19 604 tgl 25 0 empty empty ARP 26 12 0 10 #e4e4e4 #4d4d4d #373737 0 1;
#X obj 19 575 tgl 25 0 empty empty KEYS 24 11 0 10 #e4e4e4 #4d4d4d #373737 0 1;
#X obj 135 564 bng 25 250 50 0 empty empty M 5 13 0 10 #000000 #4d4d4d #ffffff;
#X obj -2 406 bng 25 250 50 0 empty empty RESET -4 13 0 10 #d66377 #ffffff #000000;
#X obj 79 564 nbx 4 18 0 500 0 0 empty empty SLEW 8 -5 0 10 #e4e4e4 #373737 #373737 0 256;
#X text 19 482 LFO;
#X obj 126 455 knob 25 1 127 2.4 75 empty empty #E4E4E4 #B7B7B7 #4D4D4D 1 0 0 0 1 270 0 0 0;
#X text 86 459 LPF;
#X text 271 373 Se tienen faders para los envíos de reverb y delay \, fader de volumen general del canal \, paneo y botón mute. en esta sección cada instrumento tiene sus propios parámetros modulables. \; El botón de reset se encarga de resetear el tempo de los arpegiadores y delay para mantener el entorno sincronizado según se desee.;
#X obj 10 686 cnv 15 590 290 empty empty empty 20 12 0 14 #dcbea0 #373737 0;
#N canvas 0 50 450 250 (subpatch) 0;
#X array \$0-pitches 16 float 2;
#X coords 0 90 16 -1 208 132 1;
#X restore 16 719 graph;
#X obj 242 756 hradio 20 1 0 12 empty empty MAJOR 249 11 0 10 #e4e4e4 #4d4d4d #373737 0;
#X obj 243 872 tgl 25 0 empty empty UP 0 -10 0 17 #e4e4e4 #4d4d4d #373737 0 1;
#X obj 242 787 hradio 20 1 0 12 empty empty MINOR 249 11 0 10 #e4e4e4 #4d4d4d #373737 0;
#X obj 17 872 tgl 25 0 empty empty RAND -4 -10 0 17 #e4e4e4 #4d4d4d #373737 0 1;
#X obj 242 707 hradio 20 1 1 7 empty empty OCTAVE 147 11 0 10 #e4e4e4 #4d4d4d #373737 1;
#X obj 17 905 nbx 5 14 0 100 0 0 empty empty SWING 59 7 0 10 #e4e4e4 #373737 #373737 0 256;
#X obj 243 905 nbx 5 14 0 100 0 0 empty empty SWING 59 7 0 10 #e4e4e4 #373737 #373737 0 256;
#X obj 306 884 bng 15 250 50 0 empty empty Reset -6 -6 0 9 #e4e4e4 #4d4d4d #373737;
#X obj 17 924 hradio 11 1 1 7 empty empty DIV 91 4 0 12 #e4e4e4 #4d4d4d #373737 2;
#X obj 243 926 hradio 12 1 1 7 empty empty DIV 91 4 0 12 #e4e4e4 #4d4d4d #373737 1;
#X obj 56 882 bng 15 250 50 0 empty empty RESET -8 -6 0 9 #e4e4e4 #4d4d4d #373737;
#X text 304 708 O;
#X obj 16 707 hradio 12 1 0 16 empty empty ARP 0 -9 0 24 #191919 #f1e1e1 #373737 0;
#X obj 149 876 nbx 4 18 0 16 0 0 empty empty RANDOMIZER -6 24 0 10 #191919 #e1e1e1 #000000 0 256;
#X obj 243 948 hradio 20 1 0 4 div1 empty NOTES 24 -5 0 10 #e4e4e4 #4d4d4d #373737 0;
#X text 263 949 4;
#X text 284 949 8;
#X text 300 949 16;
#X text 243 949 2;
#X obj 31 943 tgl 11 0 empty all_ch1 empty 17 7 0 10 #e4e4e4 #4d4d4d #373737 0 1;
#X obj 45 943 tgl 11 0 empty all_ch1 empty 17 7 0 10 #e4e4e4 #4d4d4d #373737 0 1;
#X obj 59 943 tgl 11 0 empty all_ch1 empty 17 7 0 10 #e4e4e4 #4d4d4d #373737 0 1;
#X obj 73 943 tgl 11 0 empty all_ch1 empty 17 7 0 10 #e4e4e4 #4d4d4d #373737 0 1;
#X obj 87 943 tgl 11 0 empty all_ch1 empty 17 7 0 10 #e4e4e4 #4d4d4d #373737 0 1;
#X obj 101 943 tgl 11 0 empty all_ch1 empty 17 7 0 10 #e4e4e4 #4d4d4d #373737 0 1;
#X obj 115 943 tgl 11 0 empty all_ch1 empty 17 7 0 10 #e4e4e4 #4d4d4d #373737 0 1;
#X obj 129 943 tgl 11 0 empty all_ch1 empty 17 7 0 10 #e4e4e4 #4d4d4d #373737 0 1;
#X obj 31 957 tgl 11 0 empty all_ch1 empty 17 7 0 10 #e4e4e4 #4d4d4d #373737 0 1;
#X obj 45 957 tgl 11 0 empty all_ch1 empty 17 7 0 10 #e4e4e4 #4d4d4d #373737 0 1;
#X obj 59 957 tgl 11 0 empty all_ch1 empty 17 7 0 10 #e4e4e4 #4d4d4d #373737 0 1;
#X obj 73 957 tgl 11 0 empty all_ch1 empty 17 7 0 10 #e4e4e4 #4d4d4d #373737 0 1;
#X obj 87 957 tgl 11 0 empty all_ch1 empty 17 7 0 10 #e4e4e4 #4d4d4d #373737 0 1;
#X obj 101 957 tgl 11 0 empty all_ch1 empty 17 7 0 10 #e4e4e4 #4d4d4d #373737 0 1;
#X obj 115 957 tgl 11 0 empty all_ch1 empty 17 7 0 10 #e4e4e4 #4d4d4d #373737 0 1;
#X obj 129 957 tgl 11 0 empty all_ch1 empty 17 7 0 10 #e4e4e4 #4d4d4d #373737 0 1;
#X obj 17 943 tgl 11 0 all_ch1 empty ALL -5 18 0 10 #e4e4e4 #4d4d4d #373737 0 1;
#X text 141 944 STEPS;
#X text 241 757 C;
#X text 235 738 SCALES;
#X text 258 757 C#;
#X text 283 757 D;
#X text 301 757 D#;
#X text 326 757 E;
#X text 350 757 F;
#X text 364 757 F#;
#X text 388 757 G;
#X text 405 757 G#;
#X text 430 757 A;
#X text 473 757 B;
#X text 241 788 C;
#X text 258 788 C#;
#X text 283 788 D;
#X text 301 788 D#;
#X text 326 788 E;
#X text 350 788 F;
#X text 364 788 F#;
#X text 388 788 G;
#X text 405 788 G#;
#X text 430 788 A;
#X text 448 788 A#;
#X text 473 788 B;
#X obj 272 872 tgl 25 0 empty empty DOWN -4 -10 0 17 #e4e4e4 #4d4d4d #373737 0 1;
#X obj 350 942 tgl 11 0 empty all_ch1_LIN empty 17 7 0 10 #e4e4e4 #4d4d4d #373737 0 1;
#X obj 364 942 tgl 11 0 empty all_ch1_LIN empty 17 7 0 10 #e4e4e4 #4d4d4d #373737 0 1;
#X obj 378 942 tgl 11 0 empty all_ch1_LIN empty 17 7 0 10 #e4e4e4 #4d4d4d #373737 0 1;
#X obj 392 942 tgl 11 0 empty all_ch1_LIN empty 17 7 0 10 #e4e4e4 #4d4d4d #373737 0 1;
#X obj 406 942 tgl 11 0 empty all_ch1_LIN empty 17 7 0 10 #e4e4e4 #4d4d4d #373737 0 1;
#X obj 420 942 tgl 11 0 empty all_ch1_LIN empty 17 7 0 10 #e4e4e4 #4d4d4d #373737 0 1;
#X obj 434 942 tgl 11 0 empty all_ch1_LIN empty 17 7 0 10 #e4e4e4 #4d4d4d #373737 0 1;
#X obj 448 942 tgl 11 0 empty all_ch1_LIN empty 17 7 0 10 #e4e4e4 #4d4d4d #373737 0 1;
#X obj 350 956 tgl 11 0 empty all_ch1_LIN empty 17 7 0 10 #e4e4e4 #4d4d4d #373737 0 1;
#X obj 364 956 tgl 11 0 empty all_ch1_LIN empty 17 7 0 10 #e4e4e4 #4d4d4d #373737 0 1;
#X obj 378 956 tgl 11 0 empty all_ch1_LIN empty 17 7 0 10 #e4e4e4 #4d4d4d #373737 0 1;
#X obj 392 956 tgl 11 0 empty all_ch1_LIN empty 17 7 0 10 #e4e4e4 #4d4d4d #373737 0 1;
#X obj 406 956 tgl 11 0 empty all_ch1_LIN empty 17 7 0 10 #e4e4e4 #4d4d4d #373737 0 1;
#X obj 420 956 tgl 11 0 empty all_ch1_LIN empty 17 7 0 10 #e4e4e4 #4d4d4d #373737 0 1;
#X obj 434 956 tgl 11 0 empty all_ch1_LIN empty 17 7 0 10 #e4e4e4 #4d4d4d #373737 0 1;
#X obj 448 956 tgl 11 0 empty all_ch1_LIN empty 17 7 0 10 #e4e4e4 #4d4d4d #373737 0 1;
#X obj 336 942 tgl 11 0 all_ch1_LIN empty ALL -5 18 0 10 #e4e4e4 #4d4d4d #373737 0 1;
#X text 457 942 STEPS;
#X text 447 756 A#;
#X text 275 502 El arpegiador cuenta con dos escalas \, mayor y menor \, la posibilidad de bajar o subir de octava \, y dos arpegiadores principales. \; RAND y up/down: arpegiador random y lineal donde el primero funciona en base al parámetro randomizer (qué tantas notas abarca \, máximo 16). El objeto reset es para reiniciar el tempo \, se pueden generar desfases de ritmo con este botón. el Swing se encarga de desfasar cada golpe/nota según el tempo general del proyecto \, valores muy altos determinan patrones arritmicos. \; Es necesario seleccionar los steps (16) que van a funcionar en el arpegiador. se tiene la opción de elegir la división de Tempo de cada arpegiador con el objeto DIV.;
#X obj 11 1146 cnv 15 250 303 empty empty empty 20 12 0 14 #dcbea0 #373737 0;
#X obj 20 1238 hsl 108 12 0 10000 0 1 release3 empty RELEASE 111 5 0 8 #e4e4e4 #4d4d4d #373737 7197 1;
#X obj 19 1286 knob 33 0 1 0 0 drywet_chr3 empty #E4E4E4 #B7B7B7 #4D4D4D 1 0 0 0 1 270 0 0 0;
#X obj 63 1292 hsl 105 11 0 10 0 0 empty rate_chr3 Rate -2 -8 0 10 #e4e4e4 #4d4d4d #373737 0 1;
#X obj 63 1317 hsl 105 11 1 100 1 0 depth_chr3 empty Depth -2 -8 0 10 #e4e4e4 #4d4d4d #373737 0 1;
#X obj 13 1259 note 63 18 Rockwell empty 0 55 55 55 0 228 228 228 0 0 Chorus;
#X text 3 1316 Dry/Wet;
#X obj 9 1352 note 0 18 Inter\ Variable empty 0 55 55 55 0 228 228 228 0 0 Overdrive;
#X obj 15 1376 knob 30 0 1 0 0 wet_drive3 empty #E4E4E4 #B7B7B7 #4D4D4D 1 0 0 0 1 270 0 0 0;
#X text 9 1406 Dry/Wet;
#X floatatom 45 1375 5 0 0 3 Drive\ Factor - dr_factor3 0;
#X obj 115 1353 note 121 18 Inter\ Variable empty 0 55 55 55 0 228 228 228 0 0 Pitch Shifter;
#X obj 121 1380 tgl 25 0 shifter_on3 empty On/Off -3 34 0 10 #e4e4e4 #4d4d4d #373737 0 1;
#X obj 152 1386 nbx 4 19 -1e+37 1e+37 0 0 transpo_3 empty transposition(cents) 0 -8 0 10 #e4e4e4 #373737 #373737 0 256;
#X obj 124 1422 hsl 128 17 1 100 1 0 grain3 empty Grain\ Size 28 -8 0 10 #e4e4e4 #4d4d4d #373737 0 1;
#X obj 20 1178 hsl 108 12 0 300 0 1 atk3 empty ATTACK 111 5 0 8 #e4e4e4 #4d4d4d #373737 6077 1;
#X obj 20 1216 hsl 108 12 1 1000 0 1 decay3 empty DECAY 111 5 0 8 #e4e4e4 #4d4d4d #373737 9846 1;
#X obj 20 1196 hsl 108 12 0 1 0 1 sustain3 empty SUSTAIN 111 5 0 8 #e4e4e4 #4d4d4d #373737 8049 1;
#X obj 22 1154 note 68 18 Inter\ Variable empty 0 55 55 55 0 228 228 228 0 0 ADSR;
#X obj 273 1146 cnv 15 247 303 empty empty empty 20 12 0 14 #dcbea0 #373737 0;
#X text 10 986 La etapa final son los efectos por inserto \, donde se tiene una etapa de envolvente dinámica \, chorus \, overdrive y pitch shifter. El ADSR está siempre activado y determina el comportamiento dinámico del instrumento. los efectos de chorus y overdrive funcionan según su perilla de DRY/WET. El pitch Shifter funciona con un toogle. \; Finalmente se tiene el ecualizador de 8 bandas \, que por defecto está activado pero con la ganancia de entrada (preamp) en 0 \, es necesario corroborar este módulo para que los instrumentos funcionen. Se puede ecualizar tanto desde el gráfico como de los faders \, seleccionando BAR|GRAPH \, y el objeto se apaga con el botón BY que funciona como bypass., f 70;
#X text 602 685 Para un correcto funcionamiento del ARP \, debe activarse el Toggle de RAND o bien UP/DOWN \, y tener una escala seleccionada o escribir notas directamente en el objeto Array.;
#X obj 286 1168 equalizerHELP~;
